<svg width="25" height="26" viewBox="0 0 25 26" fill="none" xmlns="http://www.w3.org/2000/svg">
<path fill-rule="evenodd" clip-rule="evenodd" d="M20.2505 5.24126C19.2393 4.22958 18.038 3.42789 16.7157 2.88235C15.3934 2.33681 13.9763 2.0582 12.5459 2.06255C6.54297 2.06255 1.65625 6.92485 1.65381 12.9024C1.65115 14.8058 2.15288 16.6759 3.10791 18.3223L1.5625 23.9376L7.33643 22.4302C8.93468 23.2961 10.7238 23.7492 12.5415 23.7486H12.5459C18.5483 23.7486 23.4346 18.8858 23.4375 12.9087C23.4411 11.4832 23.1612 10.0712 22.6141 8.7549C22.067 7.43857 21.2635 6.24419 20.2505 5.24126ZM12.5459 21.919H12.542C10.9216 21.9195 9.33062 21.4858 7.93457 20.6631L7.604 20.4678L4.17773 21.3624L5.09229 18.0376L4.87695 17.6959C3.97089 16.2614 3.49084 14.5991 3.49268 12.9024C3.49268 7.93511 7.55566 3.8936 12.5493 3.8936C14.9448 3.88933 17.2439 4.83674 18.941 6.52745C20.638 8.21817 21.594 10.5137 21.5986 12.9092C21.5967 17.877 17.5356 21.919 12.5459 21.919ZM17.5112 15.1714C17.2393 15.0357 15.8999 14.3804 15.6519 14.2901C15.4038 14.1998 15.2207 14.1543 15.0396 14.4258C14.8584 14.6973 14.3364 15.3047 14.1777 15.4878C14.019 15.6709 13.8604 15.691 13.5884 15.5552C13.3164 15.4195 12.439 15.1338 11.3994 14.211C10.5903 13.4927 10.0444 12.606 9.88574 12.335C9.72705 12.064 9.86865 11.917 10.0049 11.7823C10.1274 11.6607 10.2769 11.4659 10.4131 11.3077C10.5493 11.1495 10.5947 11.0362 10.6851 10.8555C10.7754 10.6749 10.7305 10.5167 10.6626 10.3814C10.5947 10.2461 10.0503 8.91265 9.82373 8.37017C9.60254 7.84185 9.37842 7.91362 9.21143 7.90532C9.05273 7.89751 8.86963 7.89556 8.68945 7.89556C8.55171 7.89914 8.41619 7.93109 8.29135 7.98939C8.16651 8.04769 8.05503 8.13111 7.96387 8.23443C7.71436 8.50591 7.01123 9.16216 7.01123 10.4942C7.01123 11.8262 7.98779 13.1153 8.12256 13.2959C8.25732 13.4766 10.0415 16.2125 12.7715 17.3858C13.2784 17.6029 13.7964 17.7933 14.3232 17.9561C14.9751 18.1622 15.5684 18.1334 16.0371 18.0635C16.5601 17.9859 17.6484 17.4083 17.8745 16.7754C18.1006 16.1426 18.1011 15.6006 18.0332 15.4878C17.9653 15.3751 17.7837 15.3067 17.5112 15.1714Z" fill="white"/>
</svg>
